<?xml version="1.0" encoding="UTF-8"?>
<svg id="Layer_1" data-name="Layer 1" xmlns="http://www.w3.org/2000/svg" viewBox="0 0 802 802">
  <defs>
    <style>
      .cls-1 {
        fill: #e0e0e0;
      }
    </style>
  </defs>
  <path class="cls-1" d="M622.07,686.84H179.93c-38.12,0-74.55-11.9-105.34-34.41C28.52,618.91,1,564.83,1,507.81c0-84.77,60.53-158.2,142.49-175.15,1.3-74.97,62.7-135.56,137.98-135.56,26.43,0,51.73,7.38,73.53,21.17,31.33-67.19,102.07-109.09,178.34-102.41,88.28,7.82,158.13,80.59,162.47,169.26.95,19.47-1.16,38.54-6.28,56.93,66.55,27.07,111.49,92.56,111.49,165.77,0,42.71-15.3,84.08-43.09,116.48-33.96,39.74-83.48,62.56-135.84,62.56ZM281.46,253.27c-45.12,0-81.82,36.71-81.82,81.82,0,1.91.06,3.82.19,5.71,1.47,22.31-15.06,42.36-37.62,45.58-59.87,8.56-105.03,60.75-105.03,121.42,0,39.12,18.88,76.22,50.52,99.24,21.15,15.47,46.12,23.62,72.24,23.62h442.15c35.9,0,69.87-15.64,93.17-42.92,19.09-22.26,29.59-50.64,29.59-79.95,0-54.98-36.92-103.61-89.77-118.26-10.22-2.83-18.74-9.88-23.38-19.34-4.53-9.25-4.89-20.01-.99-29.52,6.86-16.73,9.89-34.5,9-52.83-2.93-59.8-51.82-110.77-111.33-116.05-59.14-5.21-113.72,32.3-129.49,89.3-3.39,12.25-13.09,21.85-25.3,25.09-12.25,3.28-25.54-.29-34.61-9.3-15.37-15.24-35.79-23.64-57.5-23.64ZM143.76,344.36s0,.05,0,.07c0-.02,0-.05,0-.07Z"/>
</svg>