<?xml version="1.0" encoding="UTF-8"?>
<svg id="Layer_1" data-name="Layer 1" xmlns="http://www.w3.org/2000/svg" viewBox="0 0 802 802">
  <defs>
    <style>
      .cls-1 {
        fill: #1d1d1d;
      }
    </style>
  </defs>
  <path class="cls-1" d="M622.07,619.8h-63.54c-15.51,0-28.09-12.58-28.09-28.09s12.58-28.09,28.09-28.09h63.54c35.9,0,69.87-15.64,93.17-42.92,19.09-22.26,29.59-50.63,29.59-79.94,0-54.99-36.92-103.62-89.77-118.27-10.22-2.83-18.74-9.88-23.38-19.34-4.53-9.25-4.89-20.01-.99-29.52,6.86-16.72,9.89-34.5,9-52.82-2.93-59.81-51.82-110.78-111.32-116.05-59.35-5.34-113.74,32.31-129.51,89.3-3.37,12.21-13.06,21.83-25.26,25.08-12.27,3.28-25.55-.28-34.62-9.28-15.38-15.26-35.8-23.65-57.52-23.65-45.12,0-81.82,36.71-81.82,81.82,0,1.91.06,3.82.19,5.71,1.47,22.31-15.06,42.36-37.62,45.58-59.87,8.55-105.03,60.75-105.03,121.42,0,39.12,18.88,76.22,50.52,99.24,21.15,15.46,46.11,23.62,72.24,23.62h64.5c15.51,0,28.09,12.58,28.09,28.09s-12.58,28.09-28.09,28.09h-64.5c-38.12,0-74.56-11.9-105.34-34.4C28.52,551.87,1,497.79,1,440.77c0-84.77,60.53-158.21,142.49-175.15,1.3-74.97,62.7-135.56,137.98-135.56,26.43,0,51.74,7.38,73.53,21.16,31.33-67.19,102.04-109.14,178.34-102.4,88.28,7.82,158.13,80.58,162.47,169.26.95,19.46-1.16,38.54-6.28,56.92,66.55,27.07,111.49,92.57,111.49,165.77,0,42.72-15.3,84.08-43.09,116.47-33.96,39.74-83.48,62.56-135.84,62.56ZM143.76,277.33s0,.05,0,.07c0-.03,0-.05,0-.07Z"/>
  <path class="cls-1" d="M513.3,676.2l-73.61,63.85c-10.7,9.21-24.7,13.84-38.71,13.84s-27.96-4.63-38.65-13.84l-73.67-63.85c-11.69-10.15-12.96-27.9-2.81-39.65,10.15-11.69,27.9-12.96,39.65-2.81l47.42,41.08v-235.23c0-15.49,12.57-28.07,28.07-28.07s28.12,12.57,28.12,28.07v235.28l47.42-41.13c11.74-10.15,29.5-8.88,39.65,2.81,10.15,11.74,8.88,29.5-2.87,39.65Z"/>
</svg>