<?xml version="1.0" encoding="UTF-8"?>
<svg id="Layer_1" data-name="Layer 1" xmlns="http://www.w3.org/2000/svg" viewBox="0 0 802 802">
  <defs>
    <style>
      .cls-1 {
        fill: #e0e0e0;
      }
    </style>
  </defs>
  <path class="cls-1" d="M401,1C180.18,1,1,180.06,1,400.93s179.18,400.07,400,400.07,400-179.06,400-400.07S621.82,1,401,1ZM301.97,579.39h-85.99v-277.95h85.99v277.95ZM258.53,265.17c-28.16,0-50.79-23.08-50.79-51.4s22.62-51.25,50.79-51.25,50.94,22.93,50.94,51.25-22.77,51.4-50.94,51.4ZM624.22,579.39h-85.54v-145.8c0-40.01-15.28-62.48-46.89-62.48-34.31,0-52.28,23.38-52.28,62.48v145.8h-82.55v-277.95h82.55v37.46s24.72-45.85,83.74-45.85,100.97,35.96,100.97,110.43v175.91Z"/>
</svg>