<?xml version="1.0" encoding="UTF-8"?>
<svg id="Layer_1" data-name="Layer 1" xmlns="http://www.w3.org/2000/svg" viewBox="0 0 802 802">
  <defs>
    <style>
      .cls-1 {
        fill: #e0e0e0;
      }
    </style>
  </defs>
  <path class="cls-1" d="M409.12,778.67h0c-26.08,0-50.46-12.87-65.2-34.42-99.28-145.06-217.63-339.95-217.63-444.62,0-155.95,126.88-282.83,282.83-282.83s282.83,126.88,282.83,282.83c0,104.66-118.35,299.55-217.63,444.62-14.74,21.55-39.12,34.42-65.2,34.42ZM409.12,73.94c-124.46,0-225.7,101.25-225.7,225.7,0,68.23,77.63,222.38,207.65,412.36,4.16,6.07,10.73,9.55,18.05,9.55h0c7.32,0,13.9-3.48,18.06-9.55,130.01-189.99,207.64-344.14,207.64-412.36,0-124.45-101.25-225.7-225.7-225.7Z"/>
  <path class="cls-1" d="M409.12,446.61c-83.28,0-151.02-67.74-151.02-151.01s67.74-151.01,151.02-151.01,151.01,67.74,151.01,151.01-67.74,151.01-151.01,151.01ZM409.12,201.71c-51.77,0-93.89,42.12-93.89,93.88s42.12,93.88,93.89,93.88,93.88-42.12,93.88-93.88-42.12-93.88-93.88-93.88Z"/>
</svg>