<?xml version="1.0" encoding="UTF-8"?>
<svg id="Layer_1" data-name="Layer 1" xmlns="http://www.w3.org/2000/svg" viewBox="0 0 802 802">
  <defs>
    <style>
      .cls-1 {
        fill: #e0e0e0;
      }
    </style>
  </defs>
  <path class="cls-1" d="M401,538.8c-18.07,0-32.4-10.3-45.06-19.38-7.11-5.12-14.46-10.38-20.21-11.82-5.73-1.41-15.34-.51-25.39.7-15.45,1.87-32.91,3.98-48.06-4.2-15.93-8.62-22.95-24.47-29.16-38.47-3.57-8.04-6.92-15.6-10.94-19.36-4.26-3.97-13.01-7.35-21.47-10.61-14.75-5.71-31.42-12.15-40.71-27.13-9.54-15.41-7.15-32.65-5.03-47.86,1.14-8.2,2.32-16.67.9-21.65-1.33-4.63-7.05-11.57-12.1-17.7-10.08-12.24-21.5-26.12-21.5-44.59s11.41-32.32,21.47-44.55c5.08-6.17,10.8-13.11,12.13-17.74,1.42-4.97.24-13.45-.9-21.64-2.11-15.22-4.52-32.46,5.04-47.87,9.29-15,25.97-21.44,40.69-27.13,8.47-3.28,17.23-6.66,21.48-10.62,4.03-3.76,7.38-11.33,10.93-19.34,6.21-14,13.23-29.87,29.16-38.48,15.16-8.18,32.63-6.07,48.04-4.21,9.79,1.19,19.01,2.32,25.38.71,5.75-1.43,12.78-6.48,20.22-11.82,12.69-9.11,27.01-19.38,45.06-19.38s32.37,10.28,45.01,19.35c7.48,5.38,14.51,10.42,20.25,11.85,6.41,1.62,15.63.48,25.38-.7,15.44-1.88,32.91-4,48.08,4.21,15.93,8.6,22.95,24.47,29.16,38.47,3.57,8.06,6.93,15.6,10.94,19.35,4.23,3.96,12.99,7.34,21.46,10.61,14.72,5.68,31.4,12.12,40.7,27.13,9.55,15.42,7.15,32.65,5.04,47.86-1.14,8.2-2.32,16.68-.9,21.65,1.33,4.63,7.05,11.58,12.1,17.7,10.1,12.27,21.5,26.14,21.5,44.59s-11.42,32.35-21.5,44.58h0c-5.05,6.13-10.77,13.07-12.1,17.71-1.42,4.97-.24,13.44.9,21.63,2.11,15.22,4.51,32.46-5.03,47.86-9.31,15.02-25.99,21.46-40.7,27.14-8.47,3.26-17.22,6.64-21.46,10.61-4.03,3.76-7.39,11.32-10.94,19.33-6.23,14.07-13.27,29.93-29.2,38.51-15.1,8.17-32.58,6.07-48.02,4.19-9.8-1.17-19.02-2.29-25.38-.7-5.77,1.44-13.11,6.7-20.22,11.81-12.66,9.1-27,19.4-45.06,19.4ZM402.56,483.82h0ZM327.94,451.67c7.69,0,14.6.79,21.13,2.42,16,3.98,28.77,13.15,39.03,20.53,3.95,2.83,9.6,6.88,12.9,8.55,3.3-1.67,8.95-5.72,12.88-8.55,10.27-7.38,23.04-16.54,39.05-20.53,16.22-4.05,31.68-2.18,45.28-.55,4.54.55,10.82,1.32,14.7,1.36,1.72-3,3.93-8,5.53-11.59,5.14-11.58,11.49-25.93,23.75-37.36,12.05-11.25,27.12-17.07,39.23-21.74,3.74-1.45,8.86-3.42,12.28-5.08-.24-3.24-.84-7.63-1.3-10.88-1.75-12.58-3.92-28.22.71-44.4,4.48-15.68,14.5-27.83,22.55-37.6,2.32-2.82,5.47-6.64,7.5-9.52-2.03-2.88-5.17-6.7-7.48-9.51-8.06-9.79-18.09-21.95-22.57-37.62-4.63-16.17-2.46-31.82-.71-44.39.45-3.26,1.06-7.65,1.3-10.89-3.43-1.66-8.54-3.63-12.29-5.08-12.75-4.93-27.19-10.51-39.22-21.74-12.24-11.43-18.58-25.73-23.69-37.22-1.64-3.69-3.86-8.72-5.59-11.74-3.88.05-10.14.8-14.63,1.35-13.64,1.65-29.11,3.52-45.37-.53-15.97-3.98-28.75-13.16-39.01-20.53-3.96-2.84-9.6-6.89-12.9-8.54-3.3,1.65-8.93,5.69-12.87,8.52-10.3,7.39-23.07,16.57-39.07,20.56-16.25,4.04-31.7,2.18-45.34.53-4.5-.55-10.76-1.3-14.64-1.35-1.73,3.01-3.95,8.03-5.55,11.63-5.11,11.53-11.47,25.87-23.72,37.32-12.05,11.24-26.48,16.81-39.21,21.74-3.76,1.45-8.88,3.43-12.31,5.08.24,3.24.85,7.63,1.3,10.88,1.75,12.58,3.92,28.22-.71,44.4-4.48,15.66-14.5,27.83-22.55,37.6-2.32,2.83-5.47,6.64-7.5,9.52,2.03,2.89,5.18,6.71,7.5,9.53,8.04,9.77,18.07,21.92,22.55,37.59,4.63,16.19,2.46,31.83.71,44.4-.45,3.26-1.06,7.65-1.3,10.89,3.43,1.66,8.52,3.63,12.26,5.08,12.13,4.68,27.2,10.49,39.26,21.75,12.24,11.43,18.6,25.77,23.71,37.3,1.61,3.62,3.83,8.63,5.56,11.64,3.88-.04,10.14-.81,14.62-1.35,7.34-.89,15.62-1.88,24.23-1.88ZM511.5,457.02h0ZM286.46,454.76h0ZM596.84,377.34h0ZM636.94,303.78h.13-.13ZM596.84,176.11h0ZM205.16,176.11h0ZM515.54,98.68h0ZM290.5,96.42h0s0,0,0,0ZM511.5,96.42h0s0,0,0,0ZM402.56,69.63h0ZM399.44,69.63h0Z"/>
  <path class="cls-1" d="M401,406.02c-71.29,0-129.3-58.01-129.3-129.3s58.01-129.3,129.3-129.3,129.3,58.01,129.3,129.3-58.01,129.3-129.3,129.3ZM401,202.56c-40.89,0-74.16,33.27-74.16,74.16s33.27,74.16,74.16,74.16,74.16-33.27,74.16-74.16-33.27-74.16-74.16-74.16Z"/>
  <g>
    <path class="cls-1" d="M490.56,787.35l-3.84-.2c-16.98-1.32-31.77-12.87-37.26-29.37l-29.24-86.17c-4.89-14.42,2.83-30.07,17.25-34.96,14.44-4.89,30.08,2.83,34.97,17.24l19.26,56.77c4.83-11.43,9.89-23.37,12.84-30.28,3.64-8.51,10.69-15.2,19.36-18.38,8.68-3.19,18.44-2.63,26.73,1.53l34.6,17.24-47.59-129.61c-5.25-14.3,2.09-30.14,16.38-35.39,14.3-5.24,30.13,2.07,35.38,16.38l57.97,157.92c5.84,17.06,1.1,35.19-11.87,46.81-12.81,11.51-31.29,14.32-47.02,7.11l-42.15-21c-7.72,18.24-16.5,39.05-16.5,39.05l-1.01,2.14c-7.53,14.28-22.19,23.15-38.27,23.15ZM501.68,740.1l.04.11s-.03-.08-.04-.11ZM525.98,712.87l.08.04-.08-.04ZM595.41,708.52h.14-.14Z"/>
    <path class="cls-1" d="M297.57,778.92c-11.07,0-21.51-6.72-25.73-17.68l-16.11-41.81-42.22,24.57c-15.68,7.2-34.14,4.4-47.01-7.09-12.98-11.63-17.72-29.76-12.09-46.24l52.51-154.79c4.89-14.4,20.52-22.1,34.97-17.24,14.42,4.89,22.14,20.54,17.25,34.96l-42.31,124.73,32.78-19.2c8.53-5.01,18.84-6.03,28.18-2.73,9.38,3.27,16.79,10.47,20.35,19.73l25.15,65.3c5.47,14.2-1.61,30.17-15.82,35.63-3.26,1.25-6.61,1.86-9.9,1.86ZM206.63,708.4v.05s0-.04,0-.05ZM277.5,706.69l-.04.03s.03-.01.04-.03ZM246.67,695.92s0,.03.01.04v-.04Z"/>
    <path class="cls-1" d="M311.44,787.35c-16.08,0-30.75-8.87-38.27-23.15-7.09-13.48-1.93-30.15,11.54-37.25,6.66-3.5,14.1-4.04,20.78-2.01l24.1-71.05c4.9-14.42,20.54-22.12,34.97-17.24,14.42,4.89,22.14,20.54,17.25,34.96l-29.29,86.32c-5.56,16.41-20.33,27.91-37.63,29.27l-3.47.16Z"/>
  </g>
</svg>