<?xml version="1.0" encoding="UTF-8"?>
<svg id="Layer_1" data-name="Layer 1" xmlns="http://www.w3.org/2000/svg" viewBox="0 0 697.89 1239.11">
  <defs>
    <style>
      .cls-1 {
        letter-spacing: 0em;
      }

      .cls-2, .cls-3 {
        fill: #121212;
      }

      .cls-2, .cls-4, .cls-5 {
        fill-rule: evenodd;
      }

      .cls-6 {
        letter-spacing: -.02em;
      }

      .cls-4, .cls-7 {
        fill: #888;
      }

      .cls-8 {
        letter-spacing: 0em;
      }

      .cls-9 {
        letter-spacing: -.03em;
      }

      .cls-10 {
        letter-spacing: -.01em;
      }

      .cls-11 {
        letter-spacing: 0em;
      }

      .cls-12, .cls-5 {
        fill: #e0e0e0;
      }

      .cls-13 {
        fill: #222;
      }

      .cls-14 {
        letter-spacing: 0em;
      }

      .cls-15 {
        fill: #1d1d1d;
      }

      .cls-16 {
        letter-spacing: 0em;
      }

      .cls-17 {
        font-family: MyriadPro-Regular, 'Myriad Pro';
        font-size: 24.25px;
      }
    </style>
  </defs>
  <path class="cls-12" d="M363.6,107.85c-35.33,0-64,28.65-64,63.99s28.67,64.01,64,64.01,64-28.65,64-64.01-28.67-63.99-64-63.99ZM347.76,200.39h-13.76v-44.47h13.76v44.47ZM340.81,150.11c-4.51,0-8.13-3.69-8.13-8.22s3.62-8.2,8.13-8.2,8.15,3.67,8.15,8.2-3.64,8.22-8.15,8.22ZM399.32,200.39h-13.69v-23.33c0-6.4-2.44-10-7.5-10-5.49,0-8.37,3.74-8.37,10v23.33h-13.21v-44.47h13.21v5.99s3.95-7.34,13.4-7.34,16.16,5.75,16.16,17.67v28.15Z"/>
  <path class="cls-12" d="M70.6,107.85c-35.36,0-64.01,28.65-64.01,63.99s28.65,64.01,64.01,64.01,63.99-28.65,63.99-64.01-28.65-63.99-63.99-63.99ZM89.16,145.73h-8.77c-3.09,0-3.74,1.27-3.74,4.46v7.74h12.51l-1.22,13.57h-11.29v40.54h-16.18v-40.37h-8.42v-13.74h8.42v-10.84c0-10.14,5.42-15.46,17.48-15.46h11.22v14.1Z"/>
  <g>
    <path class="cls-12" d="M217.08,108.91c-35.34,0-63.99,28.65-63.99,63.99s28.65,64.01,63.99,64.01,64.01-28.65,64.01-64.01-28.65-63.99-64.01-63.99ZM253.33,187.93c-.17,3.88-.79,6.54-1.7,8.85-.91,2.4-2.16,4.44-4.2,6.47-2.04,2.01-4.05,3.26-6.45,4.2-2.33.91-4.99,1.53-8.87,1.7s-5.13.22-15.03.22-11.15-.05-15.03-.22-6.52-.79-8.85-1.7c-2.4-.94-4.44-2.18-6.45-4.2s-3.28-4.08-4.22-6.47c-.91-2.3-1.51-4.96-1.7-8.85-.17-3.88-.22-5.13-.22-15.03s.05-11.15.22-15.03c.19-3.88.79-6.52,1.7-8.85.94-2.4,2.18-4.44,4.22-6.47,2.01-2.01,4.05-3.26,6.45-4.2,2.33-.91,4.96-1.51,8.85-1.7,3.88-.17,5.13-.22,15.03-.22s11.15.05,15.03.22c3.88.19,6.54.79,8.87,1.7,2.4.94,4.41,2.18,6.45,4.2,2.04,2.04,3.28,4.08,4.2,6.47.91,2.33,1.53,4.96,1.7,8.85.17,3.88.22,5.13.22,15.03s-.05,11.15-.22,15.03Z"/>
    <path class="cls-12" d="M246.76,158.17c-.14-3.57-.74-5.49-1.25-6.78-.67-1.7-1.46-2.92-2.73-4.2s-2.49-2.06-4.2-2.73c-1.27-.48-3.21-1.08-6.76-1.25-3.86-.17-5.01-.22-14.74-.22s-10.88.05-14.72.22c-3.57.17-5.49.77-6.78,1.25-1.7.67-2.9,1.46-4.2,2.73-1.27,1.27-2.06,2.49-2.71,4.2-.5,1.29-1.1,3.21-1.27,6.78-.17,3.84-.22,4.99-.22,14.72s.05,10.88.22,14.74c.17,3.55.77,5.49,1.27,6.76.65,1.7,1.44,2.92,2.71,4.2,1.29,1.27,2.49,2.06,4.2,2.73,1.29.5,3.21,1.1,6.78,1.25,3.84.19,4.99.22,14.72.22s10.88-.02,14.74-.22c3.55-.14,5.49-.74,6.76-1.25,1.7-.67,2.92-1.46,4.2-2.73,1.27-1.27,2.06-2.49,2.73-4.2.5-1.27,1.1-3.21,1.25-6.76.19-3.86.22-5.01.22-14.74s-.02-10.88-.22-14.72ZM217.08,191.62c-10.33,0-18.72-8.37-18.72-18.72s8.39-18.72,18.72-18.72,18.72,8.39,18.72,18.72-8.37,18.72-18.72,18.72ZM236.55,158.1c-2.42,0-4.36-1.97-4.36-4.39s1.94-4.36,4.36-4.36,4.39,1.94,4.39,4.36-1.97,4.39-4.39,4.39Z"/>
    <circle class="cls-12" cx="217.08" cy="172.89" r="12.16"/>
  </g>
  <text class="cls-17" transform="translate(3.83 20.3)"><tspan class="cls-11" x="0" y="0">S</tspan><tspan x="12.1" y="0">ocials +</tspan><tspan class="cls-6" x="88.56" y="0">P</tspan><tspan x="101.07" y="0">in</tspan></text>
  <text class="cls-17" transform="translate(0 753.48)"><tspan x="0" y="0">Cloud+</tspan><tspan class="cls-9" x="74.59" y="0">W</tspan><tspan x="94.31" y="0">eb p</tspan><tspan class="cls-10" x="139.19" y="0">r</tspan><tspan x="146.88" y="0">o</tspan><tspan class="cls-8" x="160.19" y="0">g</tspan><tspan class="cls-16" x="173.6" y="0">r</tspan><tspan x="181.41" y="0">amming</tspan></text>
  <text class="cls-17" transform="translate(1.98 1025.9)"><tspan class="cls-14" x="0" y="0">E</tspan><tspan x="11.83" y="0">duc</tspan><tspan class="cls-1" x="49.74" y="0">a</tspan><tspan x="61.33" y="0">tion p</tspan><tspan class="cls-14" x="120.74" y="0">a</tspan><tspan x="132.33" y="0">th</tspan></text>
  <path class="cls-5" d="M519.58,107.85c-35.25,0-63.81,28.55-63.81,63.81,0,28.23,18.26,52.08,43.63,60.54,3.19.56,4.39-1.36,4.39-3.03,0-1.52-.08-6.54-.08-11.88-16.03,2.95-20.18-3.91-21.46-7.5-.72-1.83-3.83-7.5-6.54-9.01-2.23-1.2-5.42-4.15-.08-4.23,5.02-.08,8.61,4.63,9.81,6.54,5.74,9.65,14.91,6.94,18.58,5.26.56-4.15,2.23-6.94,4.07-8.53-14.2-1.6-29.03-7.1-29.03-31.5,0-6.94,2.47-12.68,6.54-17.15-.64-1.6-2.87-8.14.64-16.91,0,0,5.34-1.67,17.55,6.54,5.1-1.44,10.53-2.15,15.95-2.15s10.85.72,15.95,2.15c12.2-8.29,17.55-6.54,17.55-6.54,3.51,8.77,1.28,15.31.64,16.91,4.07,4.47,6.54,10.13,6.54,17.15,0,24.49-14.91,29.91-29.11,31.5,2.31,1.99,4.31,5.82,4.31,11.8,0,8.53-.08,15.39-.08,17.55,0,1.67,1.2,3.67,4.39,3.03,25.2-8.45,43.47-32.38,43.47-60.54,0-35.25-28.55-63.81-63.81-63.81Z"/>
  <g>
    <path class="cls-12" d="M652.16,235.84h0c-4.22,0-8.16-2.08-10.54-5.56-16.05-23.45-35.19-54.97-35.19-71.89,0-25.22,20.52-45.73,45.73-45.73s45.73,20.52,45.73,45.73c0,16.92-19.14,48.44-35.19,71.89-2.38,3.48-6.33,5.56-10.54,5.56ZM652.16,121.88c-20.12,0-36.49,16.37-36.49,36.49,0,11.03,12.55,35.96,33.58,66.68.67.98,1.74,1.54,2.92,1.54h0c1.18,0,2.25-.56,2.92-1.54,21.02-30.72,33.57-55.65,33.57-66.68,0-20.12-16.37-36.49-36.49-36.49Z"/>
    <path class="cls-12" d="M652.16,182.14c-13.47,0-24.42-10.95-24.42-24.42s10.95-24.42,24.42-24.42,24.42,10.95,24.42,24.42-10.95,24.42-24.42,24.42ZM652.16,142.54c-8.37,0-15.18,6.81-15.18,15.18s6.81,15.18,15.18,15.18,15.18-6.81,15.18-15.18-6.81-15.18-15.18-15.18Z"/>
  </g>
  <path class="cls-7" d="M363.6,310.8c-35.33,0-64,28.65-64,63.99s28.67,64.01,64,64.01,64-28.65,64-64.01-28.67-63.99-64-63.99ZM347.76,403.34h-13.76v-44.47h13.76v44.47ZM340.81,353.06c-4.51,0-8.13-3.69-8.13-8.22s3.62-8.2,8.13-8.2,8.15,3.67,8.15,8.2-3.64,8.22-8.15,8.22ZM399.32,403.34h-13.69v-23.33c0-6.4-2.44-10-7.5-10-5.49,0-8.37,3.74-8.37,10v23.33h-13.21v-44.47h13.21v5.99s3.95-7.34,13.4-7.34,16.16,5.75,16.16,17.67v28.15Z"/>
  <path class="cls-7" d="M70.6,310.8c-35.36,0-64.01,28.65-64.01,63.99s28.65,64.01,64.01,64.01,63.99-28.65,63.99-64.01-28.65-63.99-63.99-63.99ZM89.16,348.68h-8.77c-3.09,0-3.74,1.27-3.74,4.46v7.74h12.51l-1.22,13.57h-11.29v40.54h-16.18v-40.37h-8.42v-13.74h8.42v-10.84c0-10.14,5.42-15.46,17.48-15.46h11.22v14.1Z"/>
  <g>
    <path class="cls-7" d="M217.08,311.86c-35.34,0-63.99,28.65-63.99,63.99s28.65,64.01,63.99,64.01,64.01-28.65,64.01-64.01-28.65-63.99-64.01-63.99ZM253.33,390.88c-.17,3.88-.79,6.54-1.7,8.85-.91,2.4-2.16,4.44-4.2,6.47-2.04,2.01-4.05,3.26-6.45,4.2-2.33.91-4.99,1.53-8.87,1.7s-5.13.22-15.03.22-11.15-.05-15.03-.22-6.52-.79-8.85-1.7c-2.4-.94-4.44-2.18-6.45-4.2s-3.28-4.08-4.22-6.47c-.91-2.3-1.51-4.96-1.7-8.85-.17-3.88-.22-5.13-.22-15.03s.05-11.15.22-15.03c.19-3.88.79-6.52,1.7-8.85.94-2.4,2.18-4.44,4.22-6.47,2.01-2.01,4.05-3.26,6.45-4.2,2.33-.91,4.96-1.51,8.85-1.7,3.88-.17,5.13-.22,15.03-.22s11.15.05,15.03.22c3.88.19,6.54.79,8.87,1.7,2.4.94,4.41,2.18,6.45,4.2,2.04,2.04,3.28,4.08,4.2,6.47.91,2.33,1.53,4.96,1.7,8.85.17,3.88.22,5.13.22,15.03s-.05,11.15-.22,15.03Z"/>
    <path class="cls-7" d="M246.76,361.12c-.14-3.57-.74-5.49-1.25-6.78-.67-1.7-1.46-2.92-2.73-4.2s-2.49-2.06-4.2-2.73c-1.27-.48-3.21-1.08-6.76-1.25-3.86-.17-5.01-.22-14.74-.22s-10.88.05-14.72.22c-3.57.17-5.49.77-6.78,1.25-1.7.67-2.9,1.46-4.2,2.73-1.27,1.27-2.06,2.49-2.71,4.2-.5,1.29-1.1,3.21-1.27,6.78-.17,3.84-.22,4.99-.22,14.72s.05,10.88.22,14.74c.17,3.55.77,5.49,1.27,6.76.65,1.7,1.44,2.92,2.71,4.2,1.29,1.27,2.49,2.06,4.2,2.73,1.29.5,3.21,1.1,6.78,1.25,3.84.19,4.99.22,14.72.22s10.88-.02,14.74-.22c3.55-.14,5.49-.74,6.76-1.25,1.7-.67,2.92-1.46,4.2-2.73,1.27-1.27,2.06-2.49,2.73-4.2.5-1.27,1.1-3.21,1.25-6.76.19-3.86.22-5.01.22-14.74s-.02-10.88-.22-14.72ZM217.08,394.57c-10.33,0-18.72-8.37-18.72-18.72s8.39-18.72,18.72-18.72,18.72,8.39,18.72,18.72-8.37,18.72-18.72,18.72ZM236.55,361.05c-2.42,0-4.36-1.97-4.36-4.39s1.94-4.36,4.36-4.36,4.39,1.94,4.39,4.36-1.97,4.39-4.39,4.39Z"/>
    <circle class="cls-7" cx="217.08" cy="375.84" r="12.16"/>
  </g>
  <path class="cls-4" d="M519.58,310.8c-35.25,0-63.81,28.55-63.81,63.81,0,28.23,18.26,52.08,43.63,60.54,3.19.56,4.39-1.36,4.39-3.03,0-1.52-.08-6.54-.08-11.88-16.03,2.95-20.18-3.91-21.46-7.5-.72-1.83-3.83-7.5-6.54-9.01-2.23-1.2-5.42-4.15-.08-4.23,5.02-.08,8.61,4.63,9.81,6.54,5.74,9.65,14.91,6.94,18.58,5.26.56-4.15,2.23-6.94,4.07-8.53-14.2-1.6-29.03-7.1-29.03-31.5,0-6.94,2.47-12.68,6.54-17.15-.64-1.6-2.87-8.14.64-16.91,0,0,5.34-1.67,17.55,6.54,5.1-1.44,10.53-2.15,15.95-2.15s10.85.72,15.95,2.15c12.2-8.29,17.55-6.54,17.55-6.54,3.51,8.77,1.28,15.31.64,16.91,4.07,4.47,6.54,10.13,6.54,17.15,0,24.49-14.91,29.91-29.11,31.5,2.31,1.99,4.31,5.82,4.31,11.8,0,8.53-.08,15.39-.08,17.55,0,1.67,1.2,3.67,4.39,3.03,25.2-8.45,43.47-32.38,43.47-60.54,0-35.25-28.55-63.81-63.81-63.81Z"/>
  <g>
    <path class="cls-7" d="M652.16,438.79h0c-4.22,0-8.16-2.08-10.54-5.56-16.05-23.45-35.19-54.97-35.19-71.89,0-25.22,20.52-45.73,45.73-45.73s45.73,20.52,45.73,45.73c0,16.92-19.14,48.44-35.19,71.89-2.38,3.48-6.33,5.56-10.54,5.56ZM652.16,324.83c-20.12,0-36.49,16.37-36.49,36.49,0,11.03,12.55,35.96,33.58,66.68.67.98,1.74,1.54,2.92,1.54h0c1.18,0,2.25-.56,2.92-1.54,21.02-30.72,33.57-55.65,33.57-66.68,0-20.12-16.37-36.49-36.49-36.49Z"/>
    <path class="cls-7" d="M652.16,385.09c-13.47,0-24.42-10.95-24.42-24.42s10.95-24.42,24.42-24.42,24.42,10.95,24.42,24.42-10.95,24.42-24.42,24.42ZM652.16,345.49c-8.37,0-15.18,6.81-15.18,15.18s6.81,15.18,15.18,15.18,15.18-6.81,15.18-15.18-6.81-15.18-15.18-15.18Z"/>
  </g>
  <path class="cls-3" d="M363.6,518.34c-35.33,0-64,28.65-64,63.99s28.67,64.01,64,64.01,64-28.65,64-64.01-28.67-63.99-64-63.99ZM347.76,610.88h-13.76v-44.47h13.76v44.47ZM340.81,560.61c-4.51,0-8.13-3.69-8.13-8.22s3.62-8.2,8.13-8.2,8.15,3.67,8.15,8.2-3.64,8.22-8.15,8.22ZM399.32,610.88h-13.69v-23.33c0-6.4-2.44-10-7.5-10-5.49,0-8.37,3.74-8.37,10v23.33h-13.21v-44.47h13.21v5.99s3.95-7.34,13.4-7.34,16.16,5.75,16.16,17.67v28.15Z"/>
  <path class="cls-3" d="M70.6,518.34c-35.36,0-64.01,28.65-64.01,63.99s28.65,64.01,64.01,64.01,63.99-28.65,63.99-64.01-28.65-63.99-63.99-63.99ZM89.16,556.22h-8.77c-3.09,0-3.74,1.27-3.74,4.46v7.74h12.51l-1.22,13.57h-11.29v40.54h-16.18v-40.37h-8.42v-13.74h8.42v-10.84c0-10.14,5.42-15.46,17.48-15.46h11.22v14.1Z"/>
  <g>
    <path class="cls-3" d="M217.08,519.4c-35.34,0-63.99,28.65-63.99,63.99s28.65,64.01,63.99,64.01,64.01-28.65,64.01-64.01-28.65-63.99-64.01-63.99ZM253.33,598.42c-.17,3.88-.79,6.54-1.7,8.85-.91,2.4-2.16,4.44-4.2,6.47-2.04,2.01-4.05,3.26-6.45,4.2-2.33.91-4.99,1.53-8.87,1.7s-5.13.22-15.03.22-11.15-.05-15.03-.22-6.52-.79-8.85-1.7c-2.4-.94-4.44-2.18-6.45-4.2s-3.28-4.08-4.22-6.47c-.91-2.3-1.51-4.96-1.7-8.85-.17-3.88-.22-5.13-.22-15.03s.05-11.15.22-15.03c.19-3.88.79-6.52,1.7-8.85.94-2.4,2.18-4.44,4.22-6.47,2.01-2.01,4.05-3.26,6.45-4.2,2.33-.91,4.96-1.51,8.85-1.7,3.88-.17,5.13-.22,15.03-.22s11.15.05,15.03.22c3.88.19,6.54.79,8.87,1.7,2.4.94,4.41,2.18,6.45,4.2,2.04,2.04,3.28,4.08,4.2,6.47.91,2.33,1.53,4.96,1.7,8.85.17,3.88.22,5.13.22,15.03s-.05,11.15-.22,15.03Z"/>
    <path class="cls-3" d="M246.76,568.67c-.14-3.57-.74-5.49-1.25-6.78-.67-1.7-1.46-2.92-2.73-4.2s-2.49-2.06-4.2-2.73c-1.27-.48-3.21-1.08-6.76-1.25-3.86-.17-5.01-.22-14.74-.22s-10.88.05-14.72.22c-3.57.17-5.49.77-6.78,1.25-1.7.67-2.9,1.46-4.2,2.73-1.27,1.27-2.06,2.49-2.71,4.2-.5,1.29-1.1,3.21-1.27,6.78-.17,3.84-.22,4.99-.22,14.72s.05,10.88.22,14.74c.17,3.55.77,5.49,1.27,6.76.65,1.7,1.44,2.92,2.71,4.2,1.29,1.27,2.49,2.06,4.2,2.73,1.29.5,3.21,1.1,6.78,1.25,3.84.19,4.99.22,14.72.22s10.88-.02,14.74-.22c3.55-.14,5.49-.74,6.76-1.25,1.7-.67,2.92-1.46,4.2-2.73,1.27-1.27,2.06-2.49,2.73-4.2.5-1.27,1.1-3.21,1.25-6.76.19-3.86.22-5.01.22-14.74s-.02-10.88-.22-14.72ZM217.08,602.11c-10.33,0-18.72-8.37-18.72-18.72s8.39-18.72,18.72-18.72,18.72,8.39,18.72,18.72-8.37,18.72-18.72,18.72ZM236.55,568.59c-2.42,0-4.36-1.97-4.36-4.39s1.94-4.36,4.36-4.36,4.39,1.94,4.39,4.36-1.97,4.39-4.39,4.39Z"/>
    <circle class="cls-3" cx="217.08" cy="583.39" r="12.16"/>
  </g>
  <path class="cls-2" d="M519.58,518.34c-35.25,0-63.81,28.55-63.81,63.81,0,28.23,18.26,52.08,43.63,60.54,3.19.56,4.39-1.36,4.39-3.03,0-1.52-.08-6.54-.08-11.88-16.03,2.95-20.18-3.91-21.46-7.5-.72-1.83-3.83-7.5-6.54-9.01-2.23-1.2-5.42-4.15-.08-4.23,5.02-.08,8.61,4.63,9.81,6.54,5.74,9.65,14.91,6.94,18.58,5.26.56-4.15,2.23-6.94,4.07-8.53-14.2-1.6-29.03-7.1-29.03-31.5,0-6.94,2.47-12.68,6.54-17.15-.64-1.6-2.87-8.14.64-16.91,0,0,5.34-1.67,17.55,6.54,5.1-1.44,10.53-2.15,15.95-2.15s10.85.72,15.95,2.15c12.2-8.29,17.55-6.54,17.55-6.54,3.51,8.77,1.28,15.31.64,16.91,4.07,4.47,6.54,10.13,6.54,17.15,0,24.49-14.91,29.91-29.11,31.5,2.31,1.99,4.31,5.82,4.31,11.8,0,8.53-.08,15.39-.08,17.55,0,1.67,1.2,3.67,4.39,3.03,25.2-8.45,43.47-32.38,43.47-60.54,0-35.25-28.55-63.81-63.81-63.81Z"/>
  <g>
    <path class="cls-3" d="M652.16,646.33h0c-4.22,0-8.16-2.08-10.54-5.56-16.05-23.45-35.19-54.97-35.19-71.89,0-25.22,20.52-45.73,45.73-45.73s45.73,20.52,45.73,45.73c0,16.92-19.14,48.44-35.19,71.89-2.38,3.48-6.33,5.56-10.54,5.56ZM652.16,532.38c-20.12,0-36.49,16.37-36.49,36.49,0,11.03,12.55,35.96,33.58,66.68.67.98,1.74,1.54,2.92,1.54h0c1.18,0,2.25-.56,2.92-1.54,21.02-30.72,33.57-55.65,33.57-66.68,0-20.12-16.37-36.49-36.49-36.49Z"/>
    <path class="cls-3" d="M652.16,592.63c-13.47,0-24.42-10.95-24.42-24.42s10.95-24.42,24.42-24.42,24.42,10.95,24.42,24.42-10.95,24.42-24.42,24.42ZM652.16,553.04c-8.37,0-15.18,6.81-15.18,15.18s6.81,15.18,15.18,15.18,15.18-6.81,15.18-15.18-6.81-15.18-15.18-15.18Z"/>
  </g>
  <path class="cls-15" d="M118.08,902.31H43.29c-6.45,0-12.61-2.01-17.82-5.82-7.79-5.67-12.45-14.82-12.45-24.46,0-14.34,10.24-26.76,24.1-29.63.22-12.68,10.61-22.93,23.34-22.93,4.47,0,8.75,1.25,12.44,3.58,5.3-11.37,17.27-18.45,30.17-17.32,14.93,1.32,26.75,13.63,27.48,28.63.16,3.29-.2,6.52-1.06,9.63,11.26,4.58,18.86,15.66,18.86,28.04,0,7.23-2.59,14.22-7.29,19.7-5.74,6.72-14.12,10.58-22.98,10.58ZM60.46,828.97c-7.63,0-13.84,6.21-13.84,13.84,0,.32.01.65.03.97.25,3.77-2.55,7.16-6.36,7.71-10.13,1.45-17.77,10.28-17.77,20.54,0,6.62,3.19,12.89,8.55,16.79,3.58,2.62,7.8,4,12.22,4h74.79c6.07,0,11.82-2.65,15.76-7.26,3.23-3.77,5.01-8.57,5.01-13.52,0-9.3-6.24-17.53-15.19-20.01-1.73-.48-3.17-1.67-3.95-3.27-.77-1.56-.83-3.38-.17-4.99,1.16-2.83,1.67-5.84,1.52-8.94-.5-10.12-8.77-18.74-18.83-19.63-10-.88-19.24,5.46-21.91,15.11-.57,2.07-2.21,3.7-4.28,4.24-2.07.56-4.32-.05-5.85-1.57-2.6-2.58-6.05-4-9.73-4ZM37.17,844.38s0,0,0,.01c0,0,0,0,0-.01Z"/>
  <g>
    <path class="cls-15" d="M298.61,901.85h-10.75c-2.62,0-4.75-2.13-4.75-4.75s2.13-4.75,4.75-4.75h10.75c6.07,0,11.82-2.65,15.76-7.26,3.23-3.77,5.01-8.56,5.01-13.52,0-9.3-6.24-17.53-15.19-20.01-1.73-.48-3.17-1.67-3.95-3.27-.77-1.56-.83-3.38-.17-4.99,1.16-2.83,1.67-5.84,1.52-8.93-.5-10.12-8.77-18.74-18.83-19.63-10.04-.9-19.24,5.47-21.91,15.11-.57,2.07-2.21,3.69-4.27,4.24-2.08.56-4.32-.05-5.86-1.57-2.6-2.58-6.06-4-9.73-4-7.63,0-13.84,6.21-13.84,13.84,0,.32.01.65.03.97.25,3.77-2.55,7.16-6.36,7.71-10.13,1.45-17.77,10.28-17.77,20.54,0,6.62,3.19,12.89,8.55,16.79,3.58,2.62,7.8,3.99,12.22,3.99h10.91c2.62,0,4.75,2.13,4.75,4.75s-2.13,4.75-4.75,4.75h-10.91c-6.45,0-12.61-2.01-17.82-5.82-7.79-5.67-12.45-14.82-12.45-24.46,0-14.34,10.24-26.76,24.1-29.63.22-12.68,10.61-22.93,23.34-22.93,4.47,0,8.75,1.25,12.44,3.58,5.3-11.37,17.26-18.46,30.17-17.32,14.93,1.32,26.75,13.63,27.48,28.63.16,3.29-.2,6.52-1.06,9.63,11.26,4.58,18.86,15.66,18.86,28.04,0,7.23-2.59,14.22-7.29,19.7-5.74,6.72-14.12,10.58-22.98,10.58ZM217.7,843.92s0,0,0,.01c0,0,0,0,0-.01Z"/>
    <path class="cls-15" d="M280.21,911.39l-12.45,10.8c-1.81,1.56-4.18,2.34-6.55,2.34s-4.73-.78-6.54-2.34l-12.46-10.8c-1.98-1.72-2.19-4.72-.48-6.71,1.72-1.98,4.72-2.19,6.71-.48l8.02,6.95v-39.79c0-2.62,2.13-4.75,4.75-4.75s4.76,2.13,4.76,4.75v39.8l8.02-6.96c1.99-1.72,4.99-1.5,6.71.48,1.72,1.99,1.5,4.99-.48,6.71Z"/>
  </g>
  <g>
    <path class="cls-15" d="M412.77,892.45c-1.16,0-2.33-.42-3.24-1.28l-32.11-30c-2.13-1.99-3.35-4.8-3.35-7.71s1.22-5.72,3.35-7.71l32.11-30c1.92-1.79,4.92-1.69,6.71.23,1.79,1.92,1.69,4.92-.23,6.71l-32.11,30c-.27.26-.33.56-.33.76s.06.51.33.76l32.11,30c1.92,1.79,2.02,4.8.23,6.71-.94,1-2.2,1.51-3.47,1.51Z"/>
    <path class="cls-15" d="M469.81,892.45c-1.27,0-2.54-.51-3.47-1.51-1.79-1.92-1.69-4.92.23-6.72l32.11-30c.28-.26.33-.56.33-.76s-.06-.51-.33-.76l-32.11-30c-1.92-1.79-2.02-4.8-.23-6.71,1.79-1.92,4.8-2.02,6.71-.23l32.11,30c2.13,1.99,3.35,4.8,3.35,7.71,0,2.91-1.22,5.72-3.35,7.71l-32.1,30c-.92.86-2.08,1.28-3.24,1.28Z"/>
    <path class="cls-15" d="M435.08,894.23c-.27,0-.55-.02-.82-.07-2.58-.45-4.31-2.91-3.86-5.5l12.43-71.03c.45-2.59,2.92-4.31,5.5-3.86,2.58.45,4.31,2.91,3.86,5.5l-12.43,71.03c-.4,2.31-2.41,3.93-4.67,3.93Z"/>
  </g>
  <g>
    <path class="cls-13" d="M75.13,1197.93c-2.99,0-5.37-1.71-7.46-3.21-1.18-.85-2.39-1.72-3.35-1.96-.95-.23-2.54-.08-4.21.12-2.56.31-5.45.66-7.96-.7-2.64-1.43-3.8-4.05-4.83-6.37-.59-1.33-1.15-2.58-1.81-3.21-.71-.66-2.16-1.22-3.56-1.76-2.44-.95-5.2-2.01-6.74-4.49-1.58-2.55-1.18-5.41-.83-7.93.19-1.36.38-2.76.15-3.59-.22-.77-1.17-1.92-2-2.93-1.67-2.03-3.56-4.33-3.56-7.39s1.89-5.35,3.56-7.38c.84-1.02,1.79-2.17,2.01-2.94.24-.82.04-2.23-.15-3.58-.35-2.52-.75-5.38.84-7.93,1.54-2.48,4.3-3.55,6.74-4.49,1.4-.54,2.85-1.1,3.56-1.76.67-.62,1.22-1.88,1.81-3.2,1.03-2.32,2.19-4.95,4.83-6.37,2.51-1.36,5.41-1.01,7.96-.7,1.62.2,3.15.38,4.2.12.95-.24,2.12-1.07,3.35-1.96,2.1-1.51,4.47-3.21,7.46-3.21s5.36,1.7,7.46,3.21c1.24.89,2.4,1.73,3.35,1.96,1.06.27,2.59.08,4.2-.12,2.56-.31,5.45-.66,7.96.7,2.64,1.42,3.8,4.05,4.83,6.37.59,1.33,1.15,2.58,1.81,3.21.7.66,2.15,1.22,3.55,1.76,2.44.94,5.2,2.01,6.74,4.49,1.58,2.55,1.19,5.41.84,7.93-.19,1.36-.38,2.76-.15,3.59.22.77,1.17,1.92,2,2.93,1.67,2.03,3.56,4.33,3.56,7.39s-1.89,5.36-3.56,7.39h0c-.84,1.02-1.78,2.17-2,2.93-.24.82-.04,2.23.15,3.58.35,2.52.75,5.38-.83,7.93-1.54,2.49-4.3,3.55-6.74,4.5-1.4.54-2.85,1.1-3.56,1.76-.67.62-1.22,1.88-1.81,3.2-1.03,2.33-2.2,4.96-4.84,6.38-2.5,1.35-5.4,1.01-7.95.69-1.62-.19-3.15-.38-4.2-.12-.96.24-2.17,1.11-3.35,1.96-2.1,1.51-4.47,3.21-7.46,3.21ZM75.39,1188.83h0ZM63.03,1183.5c1.27,0,2.42.13,3.5.4,2.65.66,4.77,2.18,6.46,3.4.65.47,1.59,1.14,2.14,1.42.55-.28,1.48-.95,2.13-1.42,1.7-1.22,3.82-2.74,6.47-3.4,2.69-.67,5.25-.36,7.5-.09.75.09,1.79.22,2.44.23.28-.5.65-1.32.92-1.92.85-1.92,1.9-4.29,3.93-6.19,2-1.86,4.49-2.83,6.5-3.6.62-.24,1.47-.57,2.03-.84-.04-.54-.14-1.26-.22-1.8-.29-2.08-.65-4.68.12-7.36.74-2.6,2.4-4.61,3.74-6.23.38-.47.91-1.1,1.24-1.58-.34-.48-.86-1.11-1.24-1.58-1.34-1.62-3-3.64-3.74-6.23-.77-2.68-.41-5.27-.12-7.35.07-.54.18-1.27.22-1.8-.57-.27-1.41-.6-2.04-.84-2.11-.82-4.5-1.74-6.5-3.6-2.03-1.89-3.08-4.26-3.92-6.17-.27-.61-.64-1.45-.93-1.94-.64,0-1.68.13-2.42.22-2.26.27-4.82.58-7.52-.09-2.65-.66-4.76-2.18-6.46-3.4-.66-.47-1.59-1.14-2.14-1.41-.55.27-1.48.94-2.13,1.41-1.71,1.22-3.82,2.75-6.47,3.41-2.69.67-5.25.36-7.51.09-.74-.09-1.78-.22-2.43-.22-.29.5-.65,1.33-.92,1.93-.85,1.91-1.9,4.29-3.93,6.18-2,1.86-4.39,2.79-6.5,3.6-.62.24-1.47.57-2.04.84.04.54.14,1.26.22,1.8.29,2.08.65,4.68-.12,7.36-.74,2.59-2.4,4.61-3.74,6.23-.38.47-.91,1.1-1.24,1.58.34.48.86,1.11,1.24,1.58,1.33,1.62,2.99,3.63,3.74,6.23.77,2.68.41,5.27.12,7.35-.07.54-.18,1.27-.22,1.8.57.27,1.41.6,2.03.84,2.01.77,4.51,1.74,6.5,3.6,2.03,1.89,3.08,4.27,3.93,6.18.27.6.63,1.43.92,1.93.64,0,1.68-.13,2.42-.22,1.22-.15,2.59-.31,4.01-.31ZM93.44,1184.39h0ZM56.16,1184.01h0ZM107.57,1171.19h0ZM114.21,1159h.02-.02ZM107.57,1137.85h0ZM42.69,1137.85h0ZM94.1,1125.03h0ZM56.83,1124.65h0s0,0,0,0ZM93.43,1124.65h0s0,0,0,0ZM75.39,1120.21h0ZM74.87,1120.21h0Z"/>
    <path class="cls-13" d="M75.13,1175.94c-11.81,0-21.42-9.61-21.42-21.42s9.61-21.42,21.42-21.42,21.42,9.61,21.42,21.42-9.61,21.42-21.42,21.42ZM75.13,1142.23c-6.77,0-12.28,5.51-12.28,12.28s5.51,12.28,12.28,12.28,12.28-5.51,12.28-12.28-5.51-12.28-12.28-12.28Z"/>
    <g>
      <path class="cls-13" d="M89.97,1239.11l-.64-.03c-2.81-.22-5.26-2.13-6.17-4.87l-4.84-14.27c-.81-2.39.47-4.98,2.86-5.79,2.39-.81,4.98.47,5.79,2.86l3.19,9.4c.8-1.89,1.64-3.87,2.13-5.02.6-1.41,1.77-2.52,3.21-3.04,1.44-.53,3.06-.43,4.43.25l5.73,2.86-7.88-21.47c-.87-2.37.35-4.99,2.71-5.86,2.37-.87,4.99.34,5.86,2.71l9.6,26.16c.97,2.83.18,5.83-1.97,7.75-2.12,1.91-5.18,2.37-7.79,1.18l-6.98-3.48c-1.28,3.02-2.73,6.47-2.73,6.47l-.17.35c-1.25,2.37-3.68,3.84-6.34,3.84ZM91.81,1231.28v.02s0-.01,0-.02ZM95.83,1226.77h.01s-.01,0-.01,0ZM107.33,1226.05h.02-.02Z"/>
      <path class="cls-13" d="M58,1237.71c-1.83,0-3.56-1.11-4.26-2.93l-2.67-6.93-6.99,4.07c-2.6,1.19-5.66.73-7.79-1.18-2.15-1.93-2.93-4.93-2-7.66l8.7-25.64c.81-2.39,3.4-3.66,5.79-2.86,2.39.81,3.67,3.4,2.86,5.79l-7.01,20.66,5.43-3.18c1.41-.83,3.12-1,4.67-.45,1.55.54,2.78,1.73,3.37,3.27l4.17,10.82c.91,2.35-.27,5-2.62,5.9-.54.21-1.09.31-1.64.31ZM42.93,1226.03h0s0,0,0,0ZM54.67,1225.74h0s0,0,0,0ZM49.57,1223.96s0,0,0,0h0Z"/>
      <path class="cls-13" d="M60.3,1239.11c-2.66,0-5.09-1.47-6.34-3.84-1.18-2.23-.32-5,1.91-6.17,1.1-.58,2.34-.67,3.44-.33l3.99-11.77c.81-2.39,3.4-3.66,5.79-2.86,2.39.81,3.67,3.4,2.86,5.79l-4.85,14.3c-.92,2.72-3.37,4.62-6.23,4.85l-.57.03Z"/>
    </g>
  </g>
  <g>
    <path class="cls-13" d="M410.26,1174.13c-2.05,0-4.09-.4-6.04-1.21l-49.25-20.45c-2.02-.82-3.36-2.79-3.37-5.01,0-2.22,1.31-4.21,3.36-5.06l49.25-20.43c3.87-1.61,8.14-1.61,12.01-.02l49.87,20.47c2.04.84,3.37,2.81,3.38,5.02s-1.3,4.19-3.33,5.05l-49.92,20.47c-1.93.79-3.95,1.19-5.97,1.19ZM366.52,1147.43l41.18,17.1c1.64.68,3.45.69,5.09.01l41.69-17.09-41.69-17.11c-1.64-.67-3.45-.67-5.09,0l-41.18,17.08ZM358.42,1144.07l.06.02s-.04-.02-.06-.02Z"/>
    <path class="cls-13" d="M410.29,1208.95c-11.17,0-22.34-2.83-32.33-8.49l-.6-.34c-5.9-3.35-9.58-9.65-9.58-16.45v-13.25c0-2.51,2.03-4.54,4.54-4.54s4.54,2.03,4.54,4.54v13.25c0,3.53,1.91,6.81,4.98,8.56l.6.34c17.32,9.82,38.8,9.74,56.06-.21l.8-.46c3.04-1.75,4.93-5.02,4.93-8.52v-12.95c0-2.51,2.03-4.54,4.54-4.54s4.54,2.03,4.54,4.54v12.95c0,6.74-3.63,13.02-9.47,16.38l-.8.46c-10.09,5.82-21.42,8.73-32.76,8.73Z"/>
    <path class="cls-13" d="M466.97,1192.78c-2.51,0-4.54-2.03-4.54-4.54v-26.51c0-2.51,2.03-4.54,4.54-4.54s4.54,2.03,4.54,4.54v26.51c0,2.51-2.03,4.54-4.54,4.54Z"/>
    <path class="cls-13" d="M471.12,1219.23h-8.31c-4.68,0-8.48-3.81-8.48-8.48v-15.46c0-6.39,5.2-11.58,11.58-11.58h2.11c6.39,0,11.58,5.2,11.58,11.58v15.46c0,4.68-3.81,8.48-8.48,8.48ZM463.41,1210.15h7.11v-14.86c0-1.38-1.12-2.5-2.5-2.5h-2.11c-1.38,0-2.5,1.12-2.5,2.5v14.86Z"/>
  </g>
  <g>
    <path class="cls-13" d="M233.93,1175.19c-2.19,0-4.37-.43-6.45-1.29l-53.79-22.34c-2.06-.83-3.43-2.85-3.44-5.12-.01-2.27,1.34-4.3,3.44-5.18l53.8-22.32c4.14-1.71,8.69-1.72,12.83-.02l54.47,22.36c2.09.86,3.45,2.87,3.46,5.13s-1.33,4.28-3.4,5.16l-54.53,22.36c-2.06.84-4.22,1.27-6.38,1.27ZM185.16,1146.4l45.83,19.03c1.88.78,3.96.79,5.84.01h0s46.39-19.02,46.39-19.02l-46.39-19.04c-1.89-.77-3.96-.77-5.85.01l-45.82,19.01ZM177.15,1143.08l.07.03s-.04-.02-.07-.03Z"/>
    <path class="cls-13" d="M291.94,1171.62c-.58,0-1.17-.11-1.74-.34l-54.47-22.36c-2.34-.96-3.46-3.63-2.5-5.97s3.63-3.45,5.97-2.5l54.47,22.36c2.34.96,3.46,3.63,2.5,5.97-.73,1.77-2.43,2.84-4.24,2.84Z"/>
    <path class="cls-13" d="M233.96,1213.22c-12.14,0-24.28-3.07-35.13-9.23l-.64-.36c-6.34-3.59-10.27-10.35-10.27-17.64v-14.47c0-2.53,2.05-4.58,4.58-4.58s4.58,2.05,4.58,4.58v14.47c0,4,2.16,7.7,5.64,9.67l.64.37c19.04,10.8,42.65,10.71,61.61-.22l.87-.51c3.44-1.98,5.57-5.67,5.57-9.64v-1.75c0-2.53,2.05-4.58,4.58-4.58s4.58,2.05,4.58,4.58v1.75c0,7.23-3.89,13.96-10.15,17.57l-.87.51c-10.96,6.32-23.27,9.48-35.58,9.48Z"/>
    <path class="cls-13" d="M293.66,1201.54c-2.53,0-4.58-2.05-4.58-4.58v-28.96c0-2.53,2.05-4.58,4.58-4.58s4.58,2.05,4.58,4.58v28.96c0,2.53-2.05,4.58-4.58,4.58Z"/>
  </g>
  <g>
    <g>
      <path class="cls-13" d="M625.71,1197.13h-46.42c-5.8,0-10.51-4.72-10.51-10.51v-46.42c0-5.8,4.72-10.51,10.51-10.51h46.42c5.8,0,10.51,4.72,10.51,10.51v46.42c0,5.8-4.72,10.51-10.51,10.51ZM579.29,1138.9c-.72,0-1.3.58-1.3,1.3v46.42c0,.72.58,1.3,1.3,1.3h46.42c.72,0,1.3-.58,1.3-1.3v-46.42c0-.72-.58-1.3-1.3-1.3h-46.42Z"/>
      <path class="cls-13" d="M609.85,1178.38h-14.71c-4.2,0-7.62-3.42-7.62-7.62v-14.71c0-4.2,3.42-7.62,7.62-7.62h14.71c4.2,0,7.62,3.42,7.62,7.62v14.71c0,4.2-3.42,7.62-7.62,7.62ZM596.73,1169.17h11.53v-11.53h-11.53v11.53Z"/>
    </g>
    <g>
      <path class="cls-13" d="M594.08,1226.08c-2.54,0-4.61-2.06-4.61-4.61v-15.44c0-2.54,2.06-4.61,4.61-4.61s4.61,2.06,4.61,4.61v15.44c0,2.54-2.06,4.61-4.61,4.61Z"/>
      <path class="cls-13" d="M610.92,1226.08c-2.54,0-4.61-2.06-4.61-4.61v-15.44c0-2.54,2.06-4.61,4.61-4.61s4.61,2.06,4.61,4.61v15.44c0,2.54-2.06,4.61-4.61,4.61Z"/>
    </g>
    <g>
      <path class="cls-13" d="M594.08,1123.84c-2.54,0-4.61-2.06-4.61-4.61v-15.44c0-2.54,2.06-4.61,4.61-4.61s4.61,2.06,4.61,4.61v15.44c0,2.54-2.06,4.61-4.61,4.61Z"/>
      <path class="cls-13" d="M610.92,1123.84c-2.54,0-4.61-2.06-4.61-4.61v-15.44c0-2.54,2.06-4.61,4.61-4.61s4.61,2.06,4.61,4.61v15.44c0,2.54-2.06,4.61-4.61,4.61Z"/>
    </g>
    <g>
      <path class="cls-13" d="M661.89,1174.68h-15.44c-2.54,0-4.61-2.06-4.61-4.61s2.06-4.61,4.61-4.61h15.44c2.54,0,4.61,2.06,4.61,4.61s-2.06,4.61-4.61,4.61Z"/>
      <path class="cls-13" d="M653.77,1161.35h-7.32c-2.54,0-4.61-2.06-4.61-4.61s2.06-4.61,4.61-4.61h7.32c.28,0,.5-.23.5-.5v-11.5c0-2.54,2.06-4.61,4.61-4.61s4.61,2.06,4.61,4.61v11.5c0,5.36-4.36,9.72-9.72,9.72Z"/>
    </g>
    <g>
      <path class="cls-13" d="M558.55,1159.71h-15.44c-2.54,0-4.61-2.06-4.61-4.61s2.06-4.61,4.61-4.61h15.44c2.54,0,4.61,2.06,4.61,4.61s-2.06,4.61-4.61,4.61Z"/>
      <path class="cls-13" d="M546.12,1189.65c-2.54,0-4.61-2.06-4.61-4.61v-11.5c0-5.36,4.36-9.72,9.72-9.72h7.32c2.54,0,4.61,2.06,4.61,4.61s-2.06,4.61-4.61,4.61h-7.32c-.28,0-.5.23-.5.5v11.5c0,2.54-2.06,4.61-4.61,4.61Z"/>
    </g>
  </g>
</svg>