<?xml version="1.0" encoding="UTF-8"?>
<svg id="Layer_1" data-name="Layer 1" xmlns="http://www.w3.org/2000/svg" viewBox="0 0 800 800">
  <defs>
    <style>
      .cls-1 {
        fill: #e0e0e0;
      }
    </style>
  </defs>
  <path class="cls-1" d="M7.24,495.13c0-70.4,65.61-127.96,170.68-171.12l27.23,33.82c-95.81,43.4-117.72,78.16-117.72,137.3s26.65,97.55,122.46,140.95l-31.97,30.16C72.85,623.09,7.24,565.52,7.24,495.13ZM341.21,467.05c-28.65,0-51.58,18.66-51.58,47.11,0,30.25,23.66,47,49.67,47,1.67,0,3.33-.07,5-.24,0,28.34-19.63,50.85-59.49,65.01l16.62,39.09c63.38-19.15,96.64-61.05,96.64-119.37,0-49.19-19.5-78.61-56.86-78.61ZM338.8,418.57c31.57,0,53.39-23.55,53.39-53.91s-21.82-53.89-53.39-53.89-53.39,24.01-53.39,53.89,21.81,53.91,53.39,53.91ZM622.09,324.03l-27.23,33.82c95.81,43.4,118.05,78.15,118.05,137.27,0,53.77-22.3,90.43-98.38,129.25h-89.98V175.66h98.97v-41.9h-159.23v532.48h157.8c.48-.21.97-.38,1.42-.59,104.24-43.08,169.25-100.43,169.25-170.53s-65.6-127.93-170.67-171.09ZM622.09,666.24h1.42v-.59c-.45.21-.94.38-1.42.59Z"/>
</svg>