<?xml version="1.0" encoding="UTF-8"?>
<svg id="Layer_1" data-name="Layer 1" xmlns="http://www.w3.org/2000/svg" viewBox="0 0 800 800">
  <defs>
    <style>
      .cls-1 {
        fill: #e0e0e0;
      }
    </style>
  </defs>
  <path class="cls-1" d="M147.47,528.28c7.94,0,15.66-1.26,23.15-3.79,7.49-2.52,14.13-6.04,19.91-10.56,5.77-4.51,10.33-9.83,13.68-15.98,3.34-6.14,4.92-12.81,4.74-20.04h61.2c.18,14.08-3.03,27.31-9.61,39.67-6.59,12.37-15.53,23.15-26.81,32.36-11.29,9.21-24.33,16.52-39.13,21.94-14.81,5.42-30.33,8.12-46.58,8.12-22.57,0-42.34-3.88-59.31-11.65-16.98-7.76-31.14-18.37-42.52-31.82-11.37-13.45-19.91-29.06-25.59-46.85-5.69-17.78-8.53-36.7-8.53-56.74v-9.75c0-20.04,2.84-39,8.53-56.87,5.69-17.87,14.22-33.49,25.59-46.85,11.37-13.36,25.54-23.97,42.52-31.82,16.97-7.85,36.65-11.78,59.04-11.78,17.69,0,34.07,2.71,49.15,8.12,15.07,5.42,28.07,13,39,22.75,10.92,9.75,19.41,21.39,25.46,34.94,6.04,13.54,8.98,28.35,8.8,44.41h-61.2c.18-7.94-1.22-15.44-4.2-22.48-2.98-7.04-7.27-13.18-12.86-18.42-5.6-5.23-12.19-9.39-19.77-12.46-7.58-3.06-15.89-4.6-24.92-4.6-13.54,0-24.83,2.76-33.85,8.26-9.03,5.51-16.25,12.73-21.67,21.67-5.42,8.94-9.26,19.09-11.51,30.47-2.26,11.37-3.39,22.93-3.39,34.66v9.75c0,11.92,1.13,23.56,3.39,34.94,2.25,11.37,6.09,21.53,11.51,30.47,5.42,8.94,12.64,16.16,21.67,21.67,9.02,5.51,20.4,8.26,34.12,8.26ZM787.94,431.33c0,21.67-2.49,41.57-7.45,59.72-4.97,18.14-12.32,33.81-22.07,46.99-9.75,13.18-21.76,23.48-36.02,30.87-14.27,7.4-30.69,11.1-49.29,11.1-17.87,0-33.36-3.16-46.45-9.48-13.09-6.31-24.33-15.44-33.72-27.35l-2.98,31.41h-58.77s0-415.98,0-415.98h64.73s0,150.85,0,150.85c9.21-10.65,20.04-18.86,32.5-24.64,12.46-5.77,27.17-8.67,44.14-8.67,18.77,0,35.34,3.66,49.69,10.97,14.35,7.31,26.4,17.56,36.15,30.74,9.75,13.18,17.1,28.93,22.07,47.26,4.96,18.33,7.45,38.51,7.45,60.53v5.69ZM723.21,425.64c0-13-1.13-25.32-3.39-36.97-2.26-11.65-5.96-21.89-11.1-30.74-5.15-8.84-12.05-15.84-20.72-20.99-8.67-5.15-19.32-7.72-31.96-7.72-15.35,0-27.89,3.52-37.64,10.56-9.75,7.04-17.25,16.25-22.48,27.62v121.06c5.23,11.37,12.77,20.67,22.61,27.89,9.83,7.23,22.52,10.83,38.05,10.83,12.27,0,22.66-2.48,31.14-7.45,8.48-4.96,15.34-11.78,20.58-20.45,5.23-8.67,9.02-18.82,11.37-30.47,2.34-11.65,3.52-24.15,3.52-37.51v-5.69ZM397.42,428.2c-26.65,0-49.02,16.93-49.02,45.97s21.79,45.53,47.62,45.53c2.98,0,5.95-.21,8.89-.65-.79,41.01-24.18,69.2-70.36,88.73l15.09,33.59c65.03-22.82,102.59-69.65,102.59-135.97,0-47.86-18.88-77.21-54.8-77.21ZM394.21,379.48c28.37,0,49.99-21.34,49.99-51.8,0-29.9-21.62-51.8-49.99-51.8-28.37,0-49.99,21.89-49.99,51.8,0,30.46,21.62,51.8,49.99,51.8Z"/>
</svg>