<?xml version="1.0" encoding="UTF-8"?>
<svg id="Layer_1" data-name="Layer 1" xmlns="http://www.w3.org/2000/svg" viewBox="0 0 800 800">
  <defs>
    <style>
      .cls-1 {
        fill: #e0e0e0;
      }
    </style>
  </defs>
  <path class="cls-1" d="M152.42,318.65v20.91h.32v120.89h-.32v20.91c0,88.61,71.89,160.5,160.5,160.5h63.44v120.81h-80.64c-52.79,0-102.03-15.31-143.3-41.74-74.49-47.42-123.65-130.51-123.65-225.21v-191.43c0-94.69,49.16-177.7,123.65-225.21,41.27-26.43,90.51-41.74,143.3-41.74h80.64v120.81h-63.44c-84.75,0-154.42,65.97-160.18,149.45v.16c-.16,3.63-.32,7.26-.32,10.89ZM647.65,408.21c-27.54-8.21-48.61-8.21-48.61-8.21,0,0,21.07,0,48.61-7.5,50.9-13.57,123.57-52.79,123.57-164.76,0-122.23-49.32-165.87-123.57-181.73-41.35-8.68-90.51-8.68-143.38-8.68h-80.64v120.81h133.28c49.95,0,90.74,40.72,90.74,90.67,0,25.09-10.18,47.66-26.59,64.15-16.49,16.41-39.06,26.59-64.15,26.59h-133.28v120.89h133.28c49.95,0,90.74,40.64,90.74,90.74,0,25.09-10.18,47.66-26.59,64.07-16.49,16.49-39.06,26.59-64.15,26.59h-133.28v120.81h80.64c52.87,0,102.03,0,143.38-7.89,74.25-14.12,123.57-53.34,123.57-163.42,0-124.36-72.67-167.84-123.57-183.15Z"/>
</svg>