<?xml version="1.0" encoding="UTF-8"?>
<svg id="Layer_1" data-name="Layer 1" xmlns="http://www.w3.org/2000/svg" viewBox="0 0 800 800">
  <defs>
    <style>
      .cls-1 {
        fill: #e0e0e0;
      }
    </style>
  </defs>
  <path class="cls-1" d="M156.06,528.14l43.07,43.07c23.87,23.87,6.96,64.68-26.79,64.68h-30.07c-10.04,0-19.67-3.99-26.77-11.08l-26.44-26.41c-93.51-93.41-93.53-244.96-.03-338.38l84.89-84.81c14.78-14.77,38.72-14.78,53.52-.04l15.06,15.01c14.84,14.79,14.86,38.81.05,53.63l-86.49,86.49c-54.63,54.63-54.63,143.21,0,197.84Z"/>
  <path class="cls-1" d="M780.84,389.63l.24,22.1v99.42c0,10.05-3.99,19.68-11.1,26.79l-86.85,86.85c-7.11,7.11-16.74,11.1-26.79,11.1h-30.05c-33.75,0-50.66-40.81-26.79-64.68l73.34-73.34c7.11-7.11,11.1-16.74,11.1-26.79v-20c0-21.02-17.11-38.02-38.13-37.89h0s-25.99,0-25.99,0l-193.23,193.23c-14.8,14.8-38.78,14.8-53.58,0l-15.15-15.15c-14.8-14.8-14.8-38.78,0-53.58l179.71-179.71c7.11-7.11,11.1-16.74,11.1-26.79v-15.04c0-20.87-16.88-37.81-37.75-37.89l-14.95-.05c-10.1-.04-19.8,3.96-26.94,11.11l-179.65,179.85c-14.79,14.81-38.79,14.82-53.59.01l-15.13-15.13c-14.8-14.8-14.8-38.78,0-53.58l208.12-208.12c7.11-7.1,16.74-11.1,26.79-11.1h121.76l29.12-1.14c21.49-.84,39.36,16.35,39.36,37.86v67.22l.24,31.09,41.28-.49,55.34-.57c21.12-.22,38.35,16.88,38.28,38.01l-.12,36.39Z"/>
</svg>