<?xml version="1.0" encoding="UTF-8"?>
<svg id="Layer_1" data-name="Layer 1" xmlns="http://www.w3.org/2000/svg" viewBox="0 0 800 800">
  <defs>
    <style>
      .cls-1 {
        fill: #e0e0e0;
      }
    </style>
  </defs>
  <path class="cls-1" d="M480.66,95.89l-27.55,160.46h-92.21l14.9-86.75h-109.25v.9h-12.78c-49.71,0-87.89,19.99-114.72,59.61-26.83,39.8-40.35,95.81-40.35,168.03s13.51,130.39,40.35,170.91c26.84,40.35,65.01,60.7,114.72,60.7h12.78v.9h72.41l-13.51,73.48h-74.37c-74.57,0-132.55-26.65-173.98-79.96-41.25-53.31-61.95-128.77-61.95-226.02s20.7-170.37,61.95-223.14c41.43-52.58,99.41-79.06,173.98-79.06h137.38v-.04h92.21ZM579.44,361.3h-.03c-.92.03-1.84.06-2.75.1h-.72c-11.16.54-21.79.54-31.88.54h5.23c10.08,0,20.7,0,31.88-.54-.58-.03-1.16-.06-1.74-.1ZM579.44,361.3h-.03c-8.42-.46-16.86-.62-25.61-.62h-15.31v1.26h10.81c10.08,0,20.7,0,31.88-.54-.58-.03-1.16-.06-1.74-.1ZM722.73,405.34c-2.7-1.99-5.41-3.78-8.11-5.41,2.7-1.81,5.41-3.6,8.11-5.59,41.42-30.07,62.13-72.76,62.13-127.69s-20.71-96.17-62.13-126.07c-40.7-29.17-97.44-44.12-170.2-44.66h-22.37l-17.06,79.15,39.43,1.18c37.46,0,83.92-.17,115.98,21.79,27.38,18.91,33.86,43.59,33.86,76.72-.18,71.45-64.58,84.25-122.94,86.53.58.03,1.16.06,1.74.1-11.17.54-21.79.54-31.88.54h-16.05v79.06h12.61c38.54,0,88.61-1.62,122.65,21.79,27.38,18.73,33.86,43.4,33.86,76.71-.18,86.45-94.55,86.99-158.31,86.99h-10.81v.54h-45.92l14.31-83.39h-92.21l-27.55,160.46h170.65c72.76-.53,129.5-15.49,170.2-45.2,41.42-30.08,62.13-72.58,62.13-127.69s-20.71-96.18-62.13-125.88Z"/>
</svg>