<?xml version="1.0" encoding="UTF-8"?>
<svg id="Layer_1" data-name="Layer 1" xmlns="http://www.w3.org/2000/svg" viewBox="0 0 800 800">
  <defs>
    <style>
      .cls-1 {
        fill: #e0e0e0;
      }
    </style>
  </defs>
  <path class="cls-1" d="M9.04,492.41c0-68.39,63.74-124.32,165.83-166.25l26.46,32.86c-93.09,42.17-114.37,75.94-114.37,133.39s25.89,94.78,118.98,136.95l-31.06,29.3c-102.08-41.93-165.83-97.86-165.83-166.25ZM625.08,326.12l-26.5,32.96c93.1,42.16,114.8,75.94,114.8,133.33,0,34.79-9.64,62.25-38,87.84-27.87,25.15-64.93,37.67-102.47,37.67h-42.57v-339.72c0-53.09,43.03-96.12,96.12-96.12h0v-40.78h-58.5c-53.09,0-96.12,43.03-96.12,96.12v421.29h153.24s.06-.01.09-.02c102.09-42.08,165.79-97.88,165.79-166.27s-63.71-124.27-165.88-166.29ZM347.24,465.12c-27.84,0-50.12,18.13-50.12,45.77,0,29.39,22.99,45.67,48.26,45.67,1.62,0,3.24-.07,4.85-.24,0,27.54-19.08,49.41-57.8,63.19l16.14,37.95c61.61-18.6,93.9-59.32,93.9-115.97,0-47.79-18.94-76.37-55.24-76.37ZM344.91,418.03c30.67,0,51.87-22.88,51.87-52.37s-21.2-52.36-51.87-52.36-51.87,23.33-51.87,52.36,21.19,52.37,51.87,52.37ZM606.38,658.7h1.37v-.55c-.41.14-.96.41-1.37.55Z"/>
</svg>