<?xml version="1.0" encoding="UTF-8"?>
<svg id="Layer_1" data-name="Layer 1" xmlns="http://www.w3.org/2000/svg" viewBox="0 0 802 802">
  <defs>
    <style>
      .cls-1 {
        fill: #e0e0e0;
      }
    </style>
  </defs>
  <path class="cls-1" d="M368.73,426.01c-12.35,0-24.7-2.44-36.45-7.32L34.98,295.23c-12.2-4.94-20.28-16.86-20.33-30.27-.06-13.41,7.91-25.4,20.3-30.53l297.33-123.35c23.37-9.71,49.11-9.75,72.52-.13l301.07,123.58c12.34,5.06,20.35,16.95,20.41,30.29s-7.84,25.3-20.13,30.47l-301.35,123.58c-11.63,4.77-23.85,7.16-36.07,7.16ZM104.68,264.83l248.62,103.24c9.89,4.11,20.8,4.14,30.71.07l251.67-103.2-251.67-103.3c-9.92-4.07-20.82-4.05-30.71.06l-248.6,103.13ZM55.77,244.52l.35.15c-.11-.05-.23-.1-.35-.15Z"/>
  <path class="cls-1" d="M368.9,636.22c-67.45,0-134.89-17.07-195.17-51.26l-3.59-2.05c-35.64-20.2-57.8-58.26-57.8-99.28v-79.96c0-15.13,12.27-27.4,27.4-27.4s27.4,12.27,27.4,27.4v79.96c0,21.33,11.53,41.12,30.09,51.65l3.59,2.05c104.55,59.28,234.24,58.81,338.41-1.26l4.81-2.78c18.35-10.58,29.74-30.29,29.74-51.45v-78.17c0-15.13,12.27-27.4,27.4-27.4s27.4,12.27,27.4,27.4v78.17c0,40.69-21.9,78.58-57.14,98.91l-4.81,2.78c-60.9,35.12-129.32,52.69-197.74,52.69Z"/>
  <path class="cls-1" d="M711.07,538.6c-15.13,0-27.4-12.27-27.4-27.4v-160.06c0-15.13,12.27-27.4,27.4-27.4s27.4,12.27,27.4,27.4v160.06c0,15.13-12.27,27.4-27.4,27.4Z"/>
  <path class="cls-1" d="M736.14,698.24h-50.14c-28.24,0-51.21-22.97-51.21-51.21v-93.33c0-38.55,31.36-69.91,69.92-69.91h12.73c38.55,0,69.91,31.36,69.91,69.91v93.33c0,28.23-22.97,51.21-51.21,51.21ZM689.59,643.43h42.95v-89.73c0-8.34-6.78-15.11-15.11-15.11h-12.73c-8.34,0-15.11,6.77-15.11,15.11v89.73Z"/>
</svg>