<?xml version="1.0" encoding="UTF-8"?>
<svg id="Layer_1" data-name="Layer 1" xmlns="http://www.w3.org/2000/svg" viewBox="0 0 802 802">
  <defs>
    <style>
      .cls-1 {
        fill: #e0e0e0;
        fill-rule: evenodd;
      }
    </style>
  </defs>
  <path class="cls-1" d="M401,10.87C180,10.87,1,189.87,1,410.87c0,177,114.5,326.5,273.5,379.5,20,3.5,27.5-8.5,27.5-19,0-9.5-.5-41-.5-74.5-100.5,18.5-126.5-24.5-134.5-47-4.5-11.5-24-47-41-56.5-14-7.5-34-26-.5-26.5,31.5-.5,54,29,61.5,41,36,60.5,93.5,43.5,116.5,33,3.5-26,14-43.5,25.5-53.5-89-10-182-44.5-182-197.5,0-43.5,15.5-79.5,41-107.5-4-10-18-51,4-106,0,0,33.5-10.5,110,41,32-9,66-13.5,100-13.5s68,4.5,100,13.5c76.5-52,110-41,110-41,22,55,8,96,4,106,25.5,28,41,63.5,41,107.5,0,153.5-93.5,187.5-182.5,197.5,14.5,12.5,27,36.5,27,74,0,53.5-.5,96.5-.5,110,0,10.5,7.5,23,27.5,19,158-53,272.5-203,272.5-379.5,0-221-179-400-400-400Z"/>
</svg>