<?xml version="1.0" encoding="UTF-8"?>
<svg id="Layer_1" data-name="Layer 1" xmlns="http://www.w3.org/2000/svg" viewBox="0 0 802 802">
  <defs>
    <style>
      .cls-1 {
        fill: #e0e0e0;
      }
    </style>
  </defs>
  <path class="cls-1" d="M400.93,1C180.06,1,1,180.06,1,400.93s179.06,400.07,399.93,400.07,400.07-179.06,400.07-400.07S621.94,1,400.93,1ZM627.48,494.88c-1.05,24.27-4.94,40.91-10.64,55.29-5.69,14.98-13.49,27.72-26.22,40.46-12.74,12.59-25.32,20.38-40.31,26.22-14.54,5.69-31.17,9.59-55.44,10.64-24.27,1.05-32.07,1.35-93.95,1.35s-69.68-.3-93.95-1.35c-24.27-1.05-40.76-4.94-55.29-10.64-14.98-5.84-27.72-13.64-40.31-26.22-12.74-12.74-20.53-25.47-26.37-40.46-5.69-14.39-9.44-31.02-10.64-55.29-1.05-24.27-1.35-32.07-1.35-93.95s.3-69.68,1.35-93.95c1.2-24.27,4.95-40.76,10.64-55.29,5.84-14.98,13.64-27.72,26.37-40.46,12.59-12.59,25.32-20.38,40.31-26.22,14.53-5.69,31.02-9.44,55.29-10.64,24.27-1.05,32.07-1.35,93.95-1.35s69.68.3,93.95,1.35c24.27,1.2,40.91,4.95,55.44,10.64,14.98,5.84,27.57,13.64,40.31,26.22,12.74,12.74,20.53,25.47,26.22,40.46,5.69,14.53,9.59,31.02,10.64,55.29,1.05,24.27,1.35,32.07,1.35,93.95s-.3,69.68-1.35,93.95Z"/>
  <path class="cls-1" d="M586.43,308.92c-.9-22.33-4.65-34.31-7.79-42.41-4.2-10.64-9.14-18.28-17.08-26.22-7.94-7.94-15.58-12.89-26.22-17.08-7.94-3-20.08-6.74-42.26-7.79-24.12-1.05-31.32-1.35-92.15-1.35s-68.03.3-92,1.35c-22.33,1.05-34.31,4.8-42.41,7.79-10.64,4.2-18.13,9.14-26.22,17.08-7.94,7.94-12.89,15.58-16.93,26.22-3.15,8.09-6.89,20.08-7.94,42.41-1.05,23.97-1.35,31.17-1.35,92s.3,68.03,1.35,92.15c1.05,22.18,4.8,34.31,7.94,42.26,4.05,10.64,8.99,18.28,16.93,26.22,8.09,7.94,15.58,12.89,26.22,17.08,8.09,3.15,20.08,6.89,42.41,7.79,23.97,1.2,31.17,1.35,92,1.35s68.03-.15,92.15-1.35c22.18-.9,34.31-4.65,42.26-7.79,10.64-4.2,18.28-9.14,26.22-17.08,7.94-7.94,12.89-15.58,17.08-26.22,3.15-7.94,6.89-20.08,7.79-42.26,1.2-24.12,1.35-31.32,1.35-92.15s-.15-68.03-1.35-92ZM400.93,517.95c-64.58,0-117.03-52.29-117.03-117.03s52.44-117.03,117.03-117.03,117.03,52.44,117.03,117.03-52.29,117.03-117.03,117.03ZM522.6,308.47c-15.13,0-27.27-12.29-27.27-27.42s12.14-27.27,27.27-27.27,27.42,12.14,27.42,27.27-12.29,27.42-27.42,27.42Z"/>
  <circle class="cls-1" cx="400.93" cy="400.93" r="75.97"/>
</svg>