<?xml version="1.0" encoding="UTF-8"?>
<svg id="Layer_1" data-name="Layer 1" xmlns="http://www.w3.org/2000/svg" viewBox="0 0 802 802">
  <defs>
    <style>
      .cls-1 {
        fill: #222;
      }
    </style>
  </defs>
  <g>
    <path class="cls-1" d="M541.12,609.25h-280.24c-34.99,0-63.46-28.47-63.46-63.46v-280.24c0-34.99,28.47-63.46,63.46-63.46h280.24c34.99,0,63.46,28.46,63.46,63.46v280.24c0,34.99-28.46,63.46-63.46,63.46ZM260.88,257.7c-4.33,0-7.85,3.52-7.85,7.85v280.24c0,4.33,3.52,7.85,7.85,7.85h280.24c4.32,0,7.85-3.52,7.85-7.85v-280.24c0-4.32-3.52-7.85-7.85-7.85h-280.24Z"/>
    <path class="cls-1" d="M445.39,496.07h-88.78c-25.37,0-46.01-20.64-46.01-46v-88.79c0-25.37,20.64-46,46.01-46h88.78c25.37,0,46,20.64,46,46v88.79c0,25.37-20.64,46-46,46ZM366.21,440.46h69.57v-69.57h-69.57v69.57Z"/>
  </g>
  <g>
    <path class="cls-1" d="M350.16,784.04c-15.36,0-27.81-12.45-27.81-27.81v-93.22c0-15.36,12.45-27.81,27.81-27.81s27.81,12.45,27.81,27.81v93.22c0,15.36-12.45,27.81-27.81,27.81Z"/>
    <path class="cls-1" d="M451.84,784.04c-15.36,0-27.81-12.45-27.81-27.81v-93.22c0-15.36,12.45-27.81,27.81-27.81s27.81,12.45,27.81,27.81v93.22c0,15.36-12.45,27.81-27.81,27.81Z"/>
  </g>
  <g>
    <path class="cls-1" d="M350.16,166.8c-15.36,0-27.81-12.45-27.81-27.81V45.77c0-15.36,12.45-27.81,27.81-27.81s27.81,12.45,27.81,27.81v93.22c0,15.36-12.45,27.81-27.81,27.81Z"/>
    <path class="cls-1" d="M451.84,166.8c-15.36,0-27.81-12.45-27.81-27.81V45.77c0-15.36,12.45-27.81,27.81-27.81s27.81,12.45,27.81,27.81v93.22c0,15.36-12.45,27.81-27.81,27.81Z"/>
  </g>
  <g>
    <path class="cls-1" d="M759.55,473.71h-93.22c-15.36,0-27.81-12.45-27.81-27.81s12.45-27.81,27.81-27.81h93.22c15.36,0,27.81,12.45,27.81,27.81s-12.45,27.81-27.81,27.81Z"/>
    <path class="cls-1" d="M710.49,393.24h-44.17c-15.36,0-27.81-12.45-27.81-27.81s12.45-27.81,27.81-27.81h44.17c1.68,0,3.05-1.36,3.05-3.05v-69.42c0-15.36,12.45-27.81,27.81-27.81s27.81,12.45,27.81,27.81v69.42c0,32.35-26.31,58.66-58.66,58.66Z"/>
  </g>
  <g>
    <path class="cls-1" d="M135.69,383.34H42.45c-15.36,0-27.81-12.45-27.81-27.81s12.45-27.81,27.81-27.81h93.23c15.36,0,27.81,12.45,27.81,27.81s-12.45,27.81-27.81,27.81Z"/>
    <path class="cls-1" d="M60.66,564.08c-15.36,0-27.81-12.45-27.81-27.81v-69.42c0-32.35,26.31-58.66,58.66-58.66h44.17c15.36,0,27.81,12.45,27.81,27.81s-12.45,27.81-27.81,27.81h-44.17c-1.68,0-3.05,1.36-3.05,3.05v69.42c0,15.36-12.45,27.81-27.81,27.81Z"/>
  </g>
</svg>