<?xml version="1.0" encoding="UTF-8"?>
<svg id="Layer_1" data-name="Layer 1" xmlns="http://www.w3.org/2000/svg" viewBox="0 0 802 802">
  <defs>
    <style>
      .cls-1 {
        fill: #222;
      }
    </style>
  </defs>
  <path class="cls-1" d="M399.1,459.88c-13.19,0-26.38-2.6-38.93-7.81L35.45,317.21c-12.46-5.02-20.72-17.2-20.8-30.91-.07-13.72,8.07-25.99,20.74-31.26L360.17,120.31c24.97-10.35,52.48-10.4,77.47-.15l328.84,134.98c12.62,5.19,20.8,17.34,20.87,30.96.07,13.62-8,25.85-20.55,31.15l-329.16,134.97c-12.43,5.09-25.48,7.65-38.53,7.65ZM104.72,286.13l276.65,114.89c11.37,4.72,23.9,4.74,35.28.08h0s280.05-114.84,280.05-114.84l-280.07-114.96c-11.4-4.68-23.93-4.66-35.3.07l-276.63,114.76ZM56.38,266.05l.4.17c-.13-.06-.26-.11-.4-.17Z"/>
  <path class="cls-1" d="M749.31,438.33c-3.5,0-7.04-.67-10.48-2.08l-328.84-134.98c-14.12-5.8-20.87-21.94-15.07-36.06,5.8-14.12,21.94-20.85,36.06-15.07l328.84,134.98c14.12,5.8,20.87,21.94,15.07,36.06-4.39,10.69-14.7,17.15-25.58,17.15Z"/>
  <path class="cls-1" d="M399.31,689.49c-73.28,0-146.56-18.56-212.05-55.7l-3.89-2.2c-38.25-21.69-62.02-62.48-62.02-106.48v-87.34c0-15.26,12.38-27.64,27.64-27.64s27.64,12.38,27.64,27.64v87.34c0,24.13,13.04,46.5,34.02,58.39l3.89,2.21c114.93,65.2,257.45,64.66,371.94-1.35l5.27-3.05c20.74-11.96,33.62-34.24,33.62-58.16v-10.55c0-15.26,12.38-27.64,27.64-27.64s27.64,12.38,27.64,27.64v10.55c0,43.63-23.48,84.26-61.27,106.05l-5.27,3.05c-66.16,38.15-140.48,57.23-214.8,57.23Z"/>
  <path class="cls-1" d="M759.71,618.99c-15.26,0-27.64-12.38-27.64-27.64v-174.83c0-15.26,12.38-27.64,27.64-27.64s27.64,12.38,27.64,27.64v174.83c0,15.26-12.38,27.64-27.64,27.64Z"/>
</svg>